<svg width="28" height="28" viewBox="0 0 28 28" fill="none" xmlns="http://www.w3.org/2000/svg">
<path d="M26.5 14.8333C26.3903 14.834 26.2816 14.813 26.1801 14.7715C26.0785 14.73 25.9862 14.6689 25.9083 14.5917L14 2.67501L2.09167 14.5917C1.93225 14.7282 1.72719 14.7995 1.51746 14.7914C1.30773 14.7833 1.10878 14.6964 0.960364 14.548C0.811952 14.3996 0.725008 14.2006 0.716907 13.9909C0.708806 13.7812 0.780145 13.5761 0.916667 13.4167L13.4167 0.916674C13.5728 0.761465 13.784 0.674347 14.0042 0.674347C14.2243 0.674347 14.4355 0.761465 14.5917 0.916674L27.0917 13.4167C27.2063 13.5337 27.284 13.6819 27.3149 13.8427C27.3458 14.0036 27.3286 14.17 27.2655 14.3212C27.2024 14.4723 27.0961 14.6015 26.9599 14.6926C26.8238 14.7837 26.6638 14.8327 26.5 14.8333V14.8333Z" fill="black"/>
<path d="M14 5.49167L4 15.525V25.6667C4 26.1087 4.17559 26.5326 4.48816 26.8452C4.80072 27.1577 5.22464 27.3333 5.66667 27.3333H11.5V19H16.5V27.3333H22.3333C22.7754 27.3333 23.1993 27.1577 23.5118 26.8452C23.8244 26.5326 24 26.1087 24 25.6667V15.4667L14 5.49167Z" fill="black"/>
</svg>
