<svg width="8" height="12" viewBox="0 0 7 11" fill="none" xmlns="http://www.w3.org/2000/svg">
<path d="M1.657 0C1.56417 0 1.47515 0.0376274 1.40951 0.104605C1.34388 0.171582 1.307 0.262423 1.307 0.357143V9.4898H0.35C0.257174 9.4898 0.16815 9.52742 0.102513 9.5944C0.036875 9.66138 0 9.75222 0 9.84694C0 9.94166 0.036875 10.0325 0.102513 10.0995C0.16815 10.1665 0.257174 10.2041 0.35 10.2041H2.85C2.94283 10.2041 3.03185 10.1665 3.09749 10.0995C3.16313 10.0325 3.2 9.94166 3.2 9.84694C3.2 9.75222 3.16313 9.66138 3.09749 9.5944C3.03185 9.52742 2.94283 9.4898 2.85 9.4898H2.007V4.79592H6.307C6.39983 4.79592 6.48885 4.75829 6.55449 4.69131C6.62013 4.62434 6.657 4.5335 6.657 4.43878V0.357143C6.657 0.262423 6.62013 0.171582 6.55449 0.104605C6.48885 0.0376274 6.39983 0 6.307 0H1.707C1.69852 2.61887e-05 1.69005 0.000366549 1.6816 0.00102041C1.67341 0.000385991 1.66521 4.56444e-05 1.657 0V0Z" fill="#4329AA"/>
</svg>
