<svg width="10" height="10" viewBox="0 0 10 10" fill="none"
     xmlns="http://www.w3.org/2000/svg">
    <path d="M9.7151 0.284903C9.53267 0.102482 9.28524 0 9.02725 0C8.76926 0 8.52184 0.102482 8.33941 0.284903L3.26744 5.93348C3.82194 6.0464 4.37548 6.58913 4.45092 7.11697L9.7151 1.66059C9.89752 1.47816 10 1.23074 10 0.972747C10 0.714758 9.89752 0.467334 9.7151 0.284903ZM2.16227 6.92477C1.4444 6.92477 0.86491 7.51338 0.86491 8.24279C0.86491 8.8182 0.363262 9.1214 0 9.1214C0.397858 9.6574 1.07681 10 1.72982 10C2.68554 10 3.45964 9.21365 3.45964 8.24279C3.45964 7.51338 2.88015 6.92477 2.16227 6.92477Z"
          fill="#4329AA"/>
</svg>
