<svg width="14" height="14" viewBox="0 0 14 14" fill="none" xmlns="http://www.w3.org/2000/svg">
<path d="M12.7406 0.335569L13.1094 0.704319C13.6175 1.21307 13.5406 2.11494 12.9362 2.71869L5.33187 10.3231L2.86813 11.2243C2.55875 11.3381 2.2575 11.1906 2.19625 10.8962C2.17555 10.7894 2.1853 10.679 2.22437 10.5774L3.14313 8.09244L10.7263 0.508694C11.3306 -0.0950563 12.2325 -0.172556 12.7406 0.336194V0.335569ZM5 1.09182C5.08208 1.09182 5.16335 1.10798 5.23918 1.13939C5.31501 1.1708 5.3839 1.21684 5.44194 1.27488C5.49998 1.33291 5.54602 1.40181 5.57743 1.47764C5.60883 1.55347 5.625 1.63474 5.625 1.71682C5.625 1.7989 5.60883 1.88017 5.57743 1.956C5.54602 2.03182 5.49998 2.10072 5.44194 2.15876C5.3839 2.2168 5.31501 2.26283 5.23918 2.29424C5.16335 2.32565 5.08208 2.34182 5 2.34182H2.5C2.16848 2.34182 1.85054 2.47351 1.61612 2.70794C1.3817 2.94236 1.25 3.2603 1.25 3.59182V11.0918C1.25 11.4233 1.3817 11.7413 1.61612 11.9757C1.85054 12.2101 2.16848 12.3418 2.5 12.3418H10C10.3315 12.3418 10.6495 12.2101 10.8839 11.9757C11.1183 11.7413 11.25 11.4233 11.25 11.0918V8.59182C11.25 8.42606 11.3158 8.26709 11.4331 8.14988C11.5503 8.03267 11.7092 7.96682 11.875 7.96682C12.0408 7.96682 12.1997 8.03267 12.3169 8.14988C12.4342 8.26709 12.5 8.42606 12.5 8.59182V11.0918C12.5 11.7549 12.2366 12.3907 11.7678 12.8596C11.2989 13.3284 10.663 13.5918 10 13.5918H2.5C1.83696 13.5918 1.20107 13.3284 0.732233 12.8596C0.263392 12.3907 0 11.7549 0 11.0918V3.59182C0 2.92878 0.263392 2.29289 0.732233 1.82405C1.20107 1.35521 1.83696 1.09182 2.5 1.09182H5Z" fill="#4329AA"/>
</svg>
