<svg width="8" height="8" viewBox="0 0 8 8" fill="none" xmlns="http://www.w3.org/2000/svg">
<path d="M7.58727 0L5.05245 0.948789L5.96217 1.52046C4.33706 3.56032 1.98624 4.8168 0 5.29505L0.562683 6.31669C2.7945 5.5916 5.15735 4.28369 6.67928 1.973L7.37231 2.4084L7.58727 0ZM7.71969 2.00043L7.63715 2.93979L6.75494 2.3844C6.72399 2.43068 6.69132 2.47525 6.65864 2.52153V8H8V2.00043H7.71969V2.00043ZM5.12984 4.19456C4.91144 4.38312 4.68616 4.56139 4.45744 4.72938V8H5.7988V4.19456H5.12984ZM3.00258 5.63445C2.75494 5.76473 2.50731 5.88472 2.25623 5.99786V8H3.59759V5.63445H3.00258ZM0.0550301 6.38869V8H1.39639V6.38869H1.29871C1.04385 6.48297 0.789166 6.57039 0.536028 6.65095L0.414617 6.68867L0.249527 6.38869H0.0550301Z" fill="#4329AA"/>
</svg>
