<svg width="30" height="24" viewBox="0 0 30 24" fill="none" xmlns="http://www.w3.org/2000/svg">
<path d="M0 2.92495C0 1.55854 1.11979 0.449951 2.5 0.449951H7.5C8.88021 0.449951 10 1.55854 10 2.92495V3.74995H20V2.92495C20 1.55854 21.1198 0.449951 22.5 0.449951H27.5C28.8802 0.449951 30 1.55854 30 2.92495V7.87495C30 9.24136 28.8802 10.35 27.5 10.35H22.5C21.1198 10.35 20 9.24136 20 7.87495V7.04995H10V7.87495C10 7.96261 9.99479 8.05026 9.98438 8.13276L14.1667 13.65H19.1667C20.5469 13.65 21.6667 14.7585 21.6667 16.1249V21.0749C21.6667 22.4414 20.5469 23.5499 19.1667 23.5499H14.1667C12.7865 23.5499 11.6667 22.4414 11.6667 21.0749V16.1249C11.6667 16.0373 11.6719 15.9496 11.6823 15.8671L7.5 10.35H2.5C1.11979 10.35 0 9.24136 0 7.87495V2.92495Z" fill="black"/>
</svg>
