<svg width="30" height="30" viewBox="0 0 30 30" fill="none" xmlns="http://www.w3.org/2000/svg">
<g clip-path="url(#clip0_669_1039)">
<path d="M24.3879 4.12251H18.3939C18.1543 3.41037 17.6972 2.79141 17.0871 2.35294C16.4769 1.91446 15.7445 1.67859 14.9932 1.67859C14.2418 1.67859 13.5094 1.91446 12.8993 2.35294C12.2891 2.79141 11.832 3.41037 11.5924 4.12251H5.8315C5.62763 4.09302 5.41982 4.1071 5.22178 4.16383C5.02375 4.22055 4.84 4.31863 4.68265 4.45159C4.52531 4.58454 4.39795 4.74936 4.30897 4.93515C4.22 5.12094 4.17145 5.32349 4.1665 5.52943V26.8581C4.16759 27.0439 4.20528 27.2278 4.27741 27.399C4.34954 27.5703 4.45471 27.7257 4.5869 27.8564C4.71909 27.987 4.87572 28.0904 5.04785 28.1605C5.21997 28.2306 5.40422 28.2661 5.59008 28.265H24.3879C24.5738 28.2661 24.758 28.2306 24.9302 28.1605C25.1023 28.0904 25.2589 27.987 25.3911 27.8564C25.5233 27.7257 25.6285 27.5703 25.7006 27.399C25.7727 27.2278 25.8104 27.0439 25.8115 26.8581V5.52943C25.8104 5.34358 25.7727 5.15976 25.7006 4.98847C25.6285 4.81718 25.5233 4.66178 25.3911 4.53113C25.2589 4.40048 25.1023 4.29716 24.9302 4.22704C24.758 4.15693 24.5738 4.12141 24.3879 4.12251ZM9.40293 6.62001C9.40293 6.39921 9.49064 6.18746 9.64676 6.03134C9.80289 5.87522 10.0146 5.78751 10.2354 5.78751H13.0992V5.26303C13.0992 4.7519 13.3023 4.2617 13.6637 3.90027C14.0251 3.53884 14.5153 3.33579 15.0265 3.33579C15.5376 3.33579 16.0278 3.53884 16.3892 3.90027C16.7507 4.2617 16.9537 4.7519 16.9537 5.26303V5.82913H19.8175C20.0383 5.82913 20.25 5.91684 20.4062 6.07297C20.5623 6.22909 20.65 6.44084 20.65 6.66163V8.16013H9.36963L9.40293 6.62001ZM21.4908 14.304L13.8984 21.8964L9.53613 17.5341C9.31534 17.3133 9.1913 17.0138 9.1913 16.7016C9.1913 16.3893 9.31534 16.0899 9.53613 15.8691C9.75692 15.6483 10.0564 15.5242 10.3686 15.5242C10.6809 15.5242 10.9803 15.6483 11.2011 15.8691L13.9151 18.583L19.8591 12.639C20.0799 12.4182 20.3794 12.2941 20.6916 12.2941C21.0039 12.2941 21.3033 12.4182 21.5241 12.639C21.7449 12.8598 21.869 13.1592 21.869 13.4715C21.869 13.7837 21.7449 14.0832 21.5241 14.304H21.4908Z" fill="#4329AA"/>
</g>
<defs>
<clipPath id="clip0_669_1039">
<rect width="30" height="30" fill="white"/>
</clipPath>
</defs>
</svg>
