<svg width="21" height="17" viewBox="0 0 21 17" fill="none" xmlns="http://www.w3.org/2000/svg">
<path d="M0 1.71875C0 0.769857 0.777633 0 1.73611 0H5.20833C6.16681 0 6.94444 0.769857 6.94444 1.71875V2.29167H13.8889V1.71875C13.8889 0.769857 14.6665 0 15.625 0H19.0972C20.0557 0 20.8333 0.769857 20.8333 1.71875V5.15625C20.8333 6.10514 20.0557 6.875 19.0972 6.875H15.625C14.6665 6.875 13.8889 6.10514 13.8889 5.15625V4.58333H6.94444V5.15625C6.94444 5.21712 6.94083 5.27799 6.93359 5.33529L9.83796 9.16667H13.3102C14.2687 9.16667 15.0463 9.93652 15.0463 10.8854V14.3229C15.0463 15.2718 14.2687 16.0417 13.3102 16.0417H9.83796C8.87949 16.0417 8.10185 15.2718 8.10185 14.3229V10.8854C8.10185 10.8245 8.10547 10.7637 8.1127 10.7064L5.20833 6.875H1.73611C0.777633 6.875 0 6.10514 0 5.15625V1.71875Z" fill="black"/>
</svg>
