<svg width="12" height="12" viewBox="0 0 8 8" fill="none" xmlns="http://www.w3.org/2000/svg">
<path d="M4 0C3.20888 0 2.43552 0.234596 1.77772 0.674121C1.11992 1.11365 0.607234 1.73836 0.304484 2.46927C0.00173314 3.20017 -0.0774802 4.00444 0.0768607 4.78036C0.231202 5.55628 0.612164 6.26902 1.17157 6.82843C1.73098 7.38784 2.44372 7.7688 3.21964 7.92314C3.99556 8.07748 4.79983 7.99827 5.53073 7.69552C6.26164 7.39277 6.88635 6.88008 7.32588 6.22228C7.7654 5.56448 8 4.79112 8 4C7.99879 2.9395 7.57697 1.92279 6.82709 1.17291C6.07721 0.423026 5.0605 0.00120992 4 0ZM4 7.42857C3.09069 7.42857 2.21862 7.06735 1.57564 6.42436C0.932654 5.78138 0.57143 4.90931 0.57143 4C0.57143 3.09069 0.932654 2.21862 1.57564 1.57563C2.21862 0.932652 3.09069 0.571428 4 0.571428V4L6.42314 6.42314C6.10536 6.74206 5.72771 6.99505 5.31188 7.16759C4.89604 7.34014 4.45021 7.42883 4 7.42857Z" fill="#4329AA"/>
</svg>
