<svg width="17" height="16" viewBox="0 0 17 16" fill="none" xmlns="http://www.w3.org/2000/svg">
<path d="M14.8 3H9.2C8.53726 3 8 3.56825 8 4.26923V12.7308C8 13.4317 8.53726 14 9.2 14H14.8C15.4627 14 16 13.4317 16 12.7308V4.26923C16 3.56825 15.4627 3 14.8 3Z" stroke="white" stroke-linejoin="round"/>
<path d="M11 5.15393C12.5621 5.15393 14 5.15393 14 5.15393M11 7.30778H14M11 9.46162H12" stroke="white" stroke-width="0.7" stroke-linecap="round" stroke-linejoin="round"/>
<path d="M9.5 1H2.5C1.67157 1 1 1.72323 1 2.61538V13.3846C1 14.2768 1.67157 15 2.5 15H9.5C10.3284 15 11 14.2768 11 13.3846V2.61538C11 1.72323 10.3284 1 9.5 1Z" fill="#9B89E1" stroke="white" stroke-linejoin="round"/>
<path d="M3.5 3.69238H8.5H3.5ZM3.5 6.38469H8.5H3.5ZM3.5 9.077H6H3.5Z" fill="#9B89E1"/>
<path d="M3.5 3.69238H8.5M3.5 6.38469H8.5M3.5 9.077H6" stroke="white" stroke-linecap="round" stroke-linejoin="round"/>
</svg>
