<svg width="22" height="26" viewBox="0 0 22 26" fill="none" xmlns="http://www.w3.org/2000/svg">
<path d="M19.7622 2.84773H14.1678C13.9442 2.18307 13.5176 1.60538 12.9481 1.19613C12.3786 0.786889 11.695 0.566742 10.9938 0.566742C10.2925 0.566742 9.60893 0.786889 9.03945 1.19613C8.46998 1.60538 8.04335 2.18307 7.81973 2.84773H2.44289C2.2526 2.82021 2.05865 2.83335 1.87382 2.8863C1.68898 2.93924 1.51748 3.03078 1.37063 3.15487C1.22377 3.27897 1.1049 3.43279 1.02186 3.6062C0.938822 3.77961 0.893501 3.96865 0.888889 4.16086V24.0676C0.889906 24.2411 0.925081 24.4126 0.992404 24.5725C1.05973 24.7324 1.15788 24.8774 1.28126 24.9993C1.40464 25.1213 1.55083 25.2177 1.71148 25.2832C1.87213 25.3486 2.04409 25.3818 2.21756 25.3807H19.7622C19.9357 25.3818 20.1077 25.3486 20.2683 25.2832C20.429 25.2177 20.5751 25.1213 20.6985 24.9993C20.8219 24.8774 20.9201 24.7324 20.9874 24.5725C21.0547 24.4126 21.0899 24.2411 21.0909 24.0676V4.16086C21.0899 3.9874 21.0547 3.81583 20.9874 3.65596C20.9201 3.49609 20.8219 3.35105 20.6985 3.22911C20.5751 3.10718 20.429 3.01074 20.2683 2.9453C20.1077 2.87986 19.9357 2.84671 19.7622 2.84773V2.84773ZM5.77622 5.17873C5.77622 4.97266 5.85808 4.77503 6.0038 4.62931C6.14951 4.48359 6.34715 4.40173 6.55322 4.40173H9.2261V3.91222C9.2261 3.43516 9.41561 2.97764 9.75294 2.64031C10.0903 2.30298 10.5478 2.11347 11.0249 2.11347C11.5019 2.11347 11.9594 2.30298 12.2968 2.64031C12.6341 2.97764 12.8236 3.43516 12.8236 3.91222V4.44058H15.4965C15.7026 4.44058 15.9002 4.52244 16.0459 4.66816C16.1916 4.81388 16.2735 5.01151 16.2735 5.21758V6.61618H5.74514L5.77622 5.17873ZM17.0583 12.3504L9.97202 19.4367L5.90054 15.3652C5.69447 15.1591 5.5787 14.8796 5.5787 14.5882C5.5787 14.2968 5.69447 14.0173 5.90054 13.8112C6.10661 13.6051 6.38611 13.4894 6.67754 13.4894C6.96897 13.4894 7.24847 13.6051 7.45454 13.8112L9.98756 16.3442L15.5353 10.7964C15.7414 10.5904 16.0209 10.4746 16.3123 10.4746C16.6038 10.4746 16.8833 10.5904 17.0893 10.7964C17.2954 11.0025 17.4112 11.282 17.4112 11.5734C17.4112 11.8649 17.2954 12.1444 17.0893 12.3504H17.0583Z" fill="black"/>
</svg>
